<svg version="1.1" id="Capa_1" xmlns="http://www.w3.org/2000/svg" xmlns:xlink="http://www.w3.org/1999/xlink" x="0px" y="0px"
	 viewBox="0 0 32.219 32.219" style="enable-background:new 0 0 32.219 32.219;" xml:space="preserve">
<g>
	<path d="M32.144,12.404c-0.494-1.543-3.213-1.898-6.092-2.279c-1.578-0.205-3.371-0.443-3.912-0.842
		c-0.543-0.396-1.305-2.035-1.977-3.482c-1.222-2.632-2.376-5.114-3.996-5.122h-0.031c-1.604,0.027-2.773,2.479-4.016,5.082
		c-0.684,1.439-1.463,3.07-2.006,3.461c-0.55,0.395-2.343,0.615-3.926,0.807c-2.878,0.35-5.6,0.678-6.108,2.213
		c-0.507,1.539,1.479,3.426,3.587,5.424c1.155,1.098,2.465,2.34,2.67,2.98s-0.143,2.416-0.447,3.979
		c-0.559,2.844-1.086,5.537,0.219,6.498c0.312,0.225,0.705,0.338,1.168,0.328c1.33-0.023,3.245-1.057,5.096-2.061
		c1.387-0.76,2.959-1.613,3.662-1.623c0.676,0.002,2.254,0.881,3.646,1.654c1.893,1.053,3.852,2.141,5.184,2.119
		c0.416-0.008,0.771-0.115,1.061-0.322c1.312-0.945,0.814-3.637,0.285-6.492c-0.289-1.566-0.615-3.344-0.408-3.984
		c0.211-0.637,1.535-1.867,2.701-2.955C30.628,15.81,32.634,13.947,32.144,12.404z M25.085,17.324
		c-0.844,0.787-1.803,1.68-1.957,2.141c-0.15,0.465,0.086,1.752,0.297,2.885c0.381,2.068,0.744,4.018-0.207,4.701
		c-0.209,0.15-0.467,0.229-0.766,0.234c-0.969,0.016-2.387-0.773-3.758-1.533c-1.008-0.562-2.15-1.197-2.641-1.199
		c-0.506,0.008-1.646,0.625-2.65,1.174c-1.34,0.727-2.727,1.477-3.693,1.494c-0.335,0.006-0.618-0.074-0.845-0.236
		c-0.943-0.699-0.562-2.648-0.16-4.707c0.223-1.133,0.474-2.418,0.324-2.883c-0.146-0.463-1.096-1.363-1.932-2.158
		c-1.526-1.445-2.965-2.811-2.598-3.926c0.368-1.113,2.34-1.35,4.424-1.605c1.146-0.137,2.446-0.297,2.842-0.582
		c0.393-0.285,0.957-1.465,1.455-2.508c0.898-1.885,1.746-3.662,2.906-3.68h0.021c1.176,0.004,2.012,1.801,2.896,3.707
		c0.486,1.049,1.037,2.234,1.432,2.523c0.391,0.287,1.691,0.459,2.832,0.609c2.088,0.273,4.055,0.531,4.412,1.65
		C28.076,14.542,26.625,15.892,25.085,17.324z"/>
</g>
</svg>
